<svg width="28" height="28" viewBox="0 0 28 28" fill="none" xmlns="http://www.w3.org/2000/svg">
<path d="M13.9999 2.33203C7.57159 2.33203 2.33325 7.57036 2.33325 13.9987C2.33325 20.427 7.57159 25.6654 13.9999 25.6654C20.4283 25.6654 25.6666 20.427 25.6666 13.9987C25.6666 7.57036 20.4283 2.33203 13.9999 2.33203ZM17.9199 16.682C18.2583 17.0204 18.2583 17.5804 17.9199 17.9187C17.7449 18.0937 17.5233 18.1754 17.3016 18.1754C17.0799 18.1754 16.8583 18.0937 16.6833 17.9187L13.9999 15.2354L11.3166 17.9187C11.1416 18.0937 10.9199 18.1754 10.6983 18.1754C10.4766 18.1754 10.2549 18.0937 10.0799 17.9187C9.74159 17.5804 9.74159 17.0204 10.0799 16.682L12.7633 13.9987L10.0799 11.3154C9.74159 10.977 9.74159 10.417 10.0799 10.0787C10.4183 9.74037 10.9783 9.74037 11.3166 10.0787L13.9999 12.762L16.6833 10.0787C17.0216 9.74037 17.5816 9.74037 17.9199 10.0787C18.2583 10.417 18.2583 10.977 17.9199 11.3154L15.2366 13.9987L17.9199 16.682Z" fill="#292D32"/>
</svg>
