<svg width="21" height="20" viewBox="0 0 21 20" fill="none" xmlns="http://www.w3.org/2000/svg">
<path fill-rule="evenodd" clip-rule="evenodd" d="M14.3448 14.7695C12.6288 16.0283 10.483 16.6098 8.34095 16.3966C6.1989 16.1833 4.2204 15.1912 2.8053 13.6206C1.3902 12.0501 0.644035 10.0184 0.717613 7.93598C0.791192 5.85359 1.67902 3.87588 3.20167 2.40255C4.72433 0.929216 6.76824 0.0701422 8.92034 -0.0010533C11.0724 -0.0722488 13.1722 0.649744 14.7953 2.01901C16.4184 3.38827 17.4438 5.30269 17.6641 7.37535C17.8845 9.44801 17.2835 11.5243 15.9826 13.1847L20.4587 17.5159C20.5726 17.6185 20.6639 17.7423 20.7273 17.8799C20.7906 18.0174 20.8246 18.1659 20.8274 18.3165C20.8301 18.467 20.8015 18.6166 20.7432 18.7562C20.685 18.8958 20.5982 19.0226 20.4882 19.1291C20.3781 19.2356 20.247 19.3195 20.1028 19.3759C19.9585 19.4323 19.8039 19.46 19.6483 19.4574C19.4927 19.4547 19.3393 19.4217 19.1971 19.3605C19.055 19.2992 18.927 19.2108 18.8209 19.1006L14.3448 14.7695ZM15.3908 8.21665C15.3908 9.8027 14.7397 11.3238 13.5806 12.4453C12.4216 13.5668 10.8496 14.1969 9.21041 14.1969C7.57126 14.1969 5.99925 13.5668 4.8402 12.4453C3.68115 11.3238 3.03 9.8027 3.03 8.21665C3.03 6.6306 3.68115 5.10951 4.8402 3.988C5.99925 2.86649 7.57126 2.23643 9.21041 2.23643C10.8496 2.23643 12.4216 2.86649 13.5806 3.988C14.7397 5.10951 15.3908 6.6306 15.3908 8.21665Z" fill="black"/>
</svg>
